HIERARCHY
ROOT Hips
{
	OFFSET -14.64140 90.27770 -84.91600
	CHANNELS 6 Xposition Yposition Zposition Zrotation Xrotation Yrotation
	JOINT Spine
	{
		OFFSET 0.00000 13.20850 -1.60436
		CHANNELS 3 Zrotation Xrotation Yrotation
		JOINT Spine1
		{
			OFFSET 0.00000 8.61716 0.00000
			CHANNELS 3 Zrotation Xrotation Yrotation
			JOINT Spine2
			{
				OFFSET 0.00000 8.61717 0.00000
				CHANNELS 3 Zrotation Xrotation Yrotation
				JOINT Spine3
				{
					OFFSET 0.00000 8.61717 0.00000
					CHANNELS 3 Zrotation Xrotation Yrotation
					JOINT Neck
					{
						OFFSET 0.00000 11.07920 1.10792
						CHANNELS 3 Zrotation Xrotation Yrotation
						JOINT Neck1
						{
							OFFSET 0.00000 7.08032 0.00000
							CHANNELS 3 Zrotation Xrotation Yrotation
							JOINT Head
							{
								OFFSET 0.00000 7.08031 0.00000
								CHANNELS 3 Zrotation Xrotation Yrotation
								End site
								{
									OFFSET 0.00000 0.00000 0.00000
								}
							}
						}
					}
					JOINT RightShoulder
					{
						OFFSET -0.01000 7.91373 5.19711
						CHANNELS 3 Zrotation Xrotation Yrotation
						JOINT RightArm
						{
							OFFSET -18.41580 0.00000 0.00000
							CHANNELS 3 Zrotation Xrotation Yrotation
							JOINT RightForeArm
							{
								OFFSET -29.11090 0.00000 0.00000
								CHANNELS 3 Zrotation Xrotation Yrotation
								JOINT RightHand
								{
									OFFSET -24.65040 0.00000 0.00000
									CHANNELS 3 Zrotation Xrotation Yrotation
									JOINT RightHandThumb1
									{
										OFFSET -5.35114 -0.85590 3.97906
										CHANNELS 3 Zrotation Xrotation Yrotation
										JOINT RightHandThumb2
										{
											OFFSET -4.52789 0.00000 0.00000
											CHANNELS 3 Zrotation Xrotation Yrotation
											JOINT RightHandThumb3
											{
												OFFSET -2.46976 0.00000 0.00000
												CHANNELS 3 Zrotation Xrotation Yrotation
												End site
												{
													OFFSET 0.00000 0.00000 0.00000
												}
											}
										}
									}
									JOINT RightHandIndex1
									{
										OFFSET -14.26970 0.00000 2.88139
										CHANNELS 3 Zrotation Xrotation Yrotation
										JOINT RightHandIndex2
										{
											OFFSET -5.48836 0.00000 0.00000
											CHANNELS 3 Zrotation Xrotation Yrotation
											JOINT RightHandIndex3
											{
												OFFSET -3.01859 0.00000 0.00000
												CHANNELS 3 Zrotation Xrotation Yrotation
												End site
												{
													OFFSET 0.00000 0.00000 0.00000
												}
											}
										}
									}
									JOINT RightHandMiddle1
									{
										OFFSET -14.26970 0.00000 -0.09147
										CHANNELS 3 Zrotation Xrotation Yrotation
										JOINT RightHandMiddle2
										{
											OFFSET -6.17441 0.00000 0.00000
											CHANNELS 3 Zrotation Xrotation Yrotation
											JOINT RightHandMiddle3
											{
												OFFSET -3.56743 0.00000 0.00000
												CHANNELS 3 Zrotation Xrotation Yrotation
												End site
												{
													OFFSET 0.00000 0.00000 0.00000
												}
											}
										}
									}
									JOINT RightHandRing1
									{
										OFFSET -12.69180 0.00000 -3.06433
										CHANNELS 3 Zrotation Xrotation Yrotation
										JOINT RightHandRing2
										{
											OFFSET -5.62556 0.00000 0.00000
											CHANNELS 3 Zrotation Xrotation Yrotation
											JOINT RightHandRing3
											{
												OFFSET -3.56744 0.00000 0.00000
												CHANNELS 3 Zrotation Xrotation Yrotation
												End site
												{
													OFFSET 0.00000 0.00000 0.00000
												}
											}
										}
									}
									JOINT RightHandPinky1
									{
										OFFSET -11.11390 0.00000 -6.03719
										CHANNELS 3 Zrotation Xrotation Yrotation
										JOINT RightHandPinky2
										{
											OFFSET -4.52789 0.00000 0.00000
											CHANNELS 3 Zrotation Xrotation Yrotation
											JOINT RightHandPinky3
											{
												OFFSET -2.46976 0.00000 0.00000
												CHANNELS 3 Zrotation Xrotation Yrotation
												End site
												{
													OFFSET 0.00000 0.00000 0.00000
												}
											}
										}
									}
								}
							}
						}
					}
					JOINT LeftShoulder
					{
						OFFSET 0.01000 7.91373 5.19711
						CHANNELS 3 Zrotation Xrotation Yrotation
						JOINT LeftArm
						{
							OFFSET 18.41580 0.00000 0.00000
							CHANNELS 3 Zrotation Xrotation Yrotation
							JOINT LeftForeArm
							{
								OFFSET 29.11090 0.00000 0.00000
								CHANNELS 3 Zrotation Xrotation Yrotation
								JOINT LeftHand
								{
									OFFSET 24.65040 0.00000 0.00000
									CHANNELS 3 Zrotation Xrotation Yrotation
									JOINT LeftHandThumb1
									{
										OFFSET 5.35114 -0.85590 3.97906
										CHANNELS 3 Zrotation Xrotation Yrotation
										JOINT LeftHandThumb2
										{
											OFFSET 4.52789 0.00000 0.00000
											CHANNELS 3 Zrotation Xrotation Yrotation
											JOINT LeftHandThumb3
											{
												OFFSET 2.46977 0.00000 0.00000
												CHANNELS 3 Zrotation Xrotation Yrotation
												End site
												{
													OFFSET 0.00000 0.00000 0.00000
												}
											}
										}
									}
									JOINT LeftHandIndex1
									{
										OFFSET 14.26970 0.00000 2.88139
										CHANNELS 3 Zrotation Xrotation Yrotation
										JOINT LeftHandIndex2
										{
											OFFSET 5.48836 0.00000 0.00000
											CHANNELS 3 Zrotation Xrotation Yrotation
											JOINT LeftHandIndex3
											{
												OFFSET 3.01859 0.00000 0.00000
												CHANNELS 3 Zrotation Xrotation Yrotation
												End site
												{
													OFFSET 0.00000 0.00000 0.00000
												}
											}
										}
									}
									JOINT LeftHandMiddle1
									{
										OFFSET 14.26970 0.00000 -0.09147
										CHANNELS 3 Zrotation Xrotation Yrotation
										JOINT LeftHandMiddle2
										{
											OFFSET 6.17440 0.00000 0.00000
											CHANNELS 3 Zrotation Xrotation Yrotation
											JOINT LeftHandMiddle3
											{
												OFFSET 3.56744 0.00000 0.00000
												CHANNELS 3 Zrotation Xrotation Yrotation
												End site
												{
													OFFSET 0.00000 0.00000 0.00000
												}
											}
										}
									}
									JOINT LeftHandRing1
									{
										OFFSET 12.69180 0.00000 -3.06433
										CHANNELS 3 Zrotation Xrotation Yrotation
										JOINT LeftHandRing2
										{
											OFFSET 5.62556 0.00000 0.00000
											CHANNELS 3 Zrotation Xrotation Yrotation
											JOINT LeftHandRing3
											{
												OFFSET 3.56744 0.00000 0.00000
												CHANNELS 3 Zrotation Xrotation Yrotation
												End site
												{
													OFFSET 0.00000 0.00000 0.00000
												}
											}
										}
									}
									JOINT LeftHandPinky1
									{
										OFFSET 11.11390 0.00000 -6.03719
										CHANNELS 3 Zrotation Xrotation Yrotation
										JOINT LeftHandPinky2
										{
											OFFSET 4.52789 0.00000 0.00000
											CHANNELS 3 Zrotation Xrotation Yrotation
											JOINT LeftHandPinky3
											{
												OFFSET 2.46976 0.00000 0.00000
												CHANNELS 3 Zrotation Xrotation Yrotation
												End site
												{
													OFFSET 0.00000 0.00000 0.00000
												}
											}
										}
									}
								}
							}
						}
					}
					JOINT pCube4
					{
						OFFSET 0.00000 10.91090 1.10792
						CHANNELS 3 Zrotation Xrotation Yrotation
						End site
						{
							OFFSET 0.00000 0.00000 0.00000
						}
					}
				}
			}
		}
	}
	JOINT RightUpLeg
	{
		OFFSET -9.98441 0.00000 0.00000
		CHANNELS 3 Zrotation Xrotation Yrotation
		JOINT RightLeg
		{
			OFFSET 0.00000 -42.11790 0.00000
			CHANNELS 3 Zrotation Xrotation Yrotation
			JOINT RightFoot
			{
				OFFSET 0.00000 -45.00020 -0.00001
				CHANNELS 3 Zrotation Xrotation Yrotation
				JOINT RightForeFoot
				{
					OFFSET 0.00000 -3.74820 0.00000
					CHANNELS 3 Zrotation Xrotation Yrotation
					JOINT RightToeBase
					{
						OFFSET 0.00000 0.06325 14.43120
						CHANNELS 3 Zrotation Xrotation Yrotation
						End site
						{
							OFFSET 0.00000 0.00000 0.00000
						}
					}
				}
			}
		}
	}
	JOINT LeftUpLeg
	{
		OFFSET 9.98441 0.00000 0.00000
		CHANNELS 3 Zrotation Xrotation Yrotation
		JOINT LeftLeg
		{
			OFFSET 0.00000 -42.11800 0.00000
			CHANNELS 3 Zrotation Xrotation Yrotation
			JOINT LeftFoot
			{
				OFFSET 0.00000 -45.00070 0.00000
				CHANNELS 3 Zrotation Xrotation Yrotation
				JOINT LeftForeFoot
				{
					OFFSET 0.00000 -3.74824 0.00000
					CHANNELS 3 Zrotation Xrotation Yrotation
					JOINT LeftToeBase
					{
						OFFSET 0.00000 0.06325 14.43110
						CHANNELS 3 Zrotation Xrotation Yrotation
						End site
						{
							OFFSET 0.00000 0.00000 0.00000
						}
					}
				}
			}
		}
	}
}
MOTION
Frames: 4
Frame Time: 0.050000
0.011143858194104699 0.02885354091197292 -0.021885781532689996 -0.01815188396079703 -0.01852965448977428 0.03235977700387778 -3.6893474357761784 2.1384817299612866 -0.7548005283329695 -1.1529318125544437 3.8617825896185902 0.4518786482120627 -1.3767314701514612 -1.4719877755612145 -1.4021534022602533 0.2522491654875945 0.6395161457415196 -0.8799373028855976 0.030057090278675234 11.323310061806518 -0.8106718192839509 0.1862157074004217 -1.979888266817775 -3.5038310375337325 0.7293836843775213 -18.586550096434948 -0.3208838893551023 -4.696369256484213 1.6253126729739045 -14.86906204859927 74.55992741119329 24.4132837867486 -0.026422093990652578 -2.5904562565791163 1.879701437799263 40.253209091730795 19.62240224255269 -0.12241878346000248 -3.763641892074925 4.528457553039753 -0.13501651787125513 -1.6141935543783839 -0.03754346987215081 0.012846647156709853 -56.224259618248574 0.0013259011302714436 0.028129913022577193 -56.26176392507633 -38.75201976943924 -0.017734503423252883 0.0231816451917582 -0.04103181405550617 -0.0247815213093844 -0.03947465503026487 -0.00413040825363446 0.0389393268349767 -0.030869464595739995 -36.70444298015213 -0.01641395596330952 0.024863560207683075 0.03490332023248059 -0.02170164514238154 0.04349850751702549 -0.011037399661537634 -0.017699322962241745 -0.025469543258002672 -19.744994349043495 0.024248330480749494 -0.046125064816826315 0.027417998041256796 0.029544452604691084 -0.02619956878008066 -0.03494319730144581 0.01934730588585904 0.0027331481259613593 24.044115414637925 -0.0018487180835564272 0.02438328959046664 28.84057660393355 0.03254986365603993 0.044894352496834634 28.835427590044066 -0.010670979545700997 0.024349557282358054 5.028095581592723 1.2232934399780777 12.88479033589453 -71.71753141829984 26.689041818699092 -6.168097104025432 1.400809745935059 -7.7160370130493545 -40.68867163095407 -8.304694617069043 1.48724348435787 2.5172426511954074 -0.4660138276247112 0.07921936694677556 -8.164644753047332 0.017290731521214613 -0.040502636166286736 44.58919155818286 -0.006890688271505357 -0.0008916968799244042 44.582766593476116 12.46839742791137 -0.03213638795935786 -0.003890636178830901 -0.008715471218118522 0.021935873000632086 0.03133485569583711 0.014120305923662712 0.041722328579216934 -0.0020181520516073595 11.127031073929995 -0.03135881028704449 -0.0029684911863754495 -0.046243594696453394 -0.04598750218298662 -0.034082148124548815 0.04658601511028008 0.022913162589144033 -0.01597309815144844 4.723308883619525 -0.030556965890720884 -0.024809860399583637 0.017056144478413138 0.033381372164322486 -0.024293010287854622 0.013467597800533172 -0.03543731968737517 0.0383958574826656 -5.5889851609294805 -0.01835414576496362 -0.003830788417776512 -6.737311666083678 -0.047458736424356586 -0.0006701113123694928 -6.72688783110734 0.04605370623994614 -0.03652169466711386 -0.048448527394174094 0.018034951252731295 0.0018445262086938421 8.046715745980753 3.460241745070412 -19.2259049483152 0.02000492822710219 10.368887065158141 0.04519794153784072 -5.593208660127949 -15.652874486800542 3.1615303933127925 0.035377435230970866 -0.0032294346235344604 0.02773375848905509 0.033725534659134686 4.711856953659859 -0.017352795336102657 12.443232763387284 -8.275123684931732 6.863202693017902 -0.03807072772700758 46.40698179944726 -0.028005776468686197 -4.323867119898724 -14.781504399548439 -3.806812760209522 0.02993702553154829 -0.021658180013268916 0.0335163350237454 0.03641338859152512 -10.793395151666731 0.020946146439087956 
-0.021689993848858915 0.040412616532581505 0.04033656178095376 0.04525915991321557 0.009952729351589423 -0.00318820019537038 -3.5304949796886502 2.244811360059631 -0.7487266364795511 -1.204181923477851 3.8845810153897213 0.43286648752995227 -1.353180417045405 -1.474677565398207 -1.2504230520905844 0.18628771971042507 0.6022365888138133 -0.8148851758038326 -0.0023606485028795712 11.438774281072734 -0.7046148717626046 0.2116899777975309 -1.9245913571366908 -3.4062835071212154 0.6607487510616241 -18.445505855267665 -0.37769829468139243 -4.644958898259296 1.61968027660873 -14.809973335558295 73.91394711648444 24.40284046277507 0.6317352700677574 -2.458633855070341 1.7244326919804673 42.0878195241806 19.814654047210073 -0.16313188384828559 -3.783158314457927 4.518257429636018 -0.09938401288115145 -1.5625826583925455 -0.028925880664225433 0.03455194875887315 -56.2150360191176 0.0007563470955061867 0.012855944310051041 -56.202236062702056 -38.80063694846028 -0.022192171268903455 -0.022359409036419878 -0.0002633477301721645 -0.012897386066254346 0.002491302723534883 0.035046537627600495 -0.025124332383549976 -0.003308985779611572 -36.73744684759194 0.0022410307726441598 0.028969961973336546 -0.044041546436761385 -0.013182712909187995 0.017056759333836904 -0.03270993398008953 0.011611852903636402 0.0343258839691851 -19.767369696541497 0.027345713986038064 -0.005661659674370202 0.002100955271233828 0.04552540777324014 0.024322085387386796 -0.021041305126535136 0.0038744513248955884 -0.012184749616312702 24.059995685004044 0.009572851742339065 0.0486591765646953 28.816177514764128 0.04050762224990327 -0.03839251553335858 28.885054593297045 -0.0401963613491404 -0.03685787401987476 5.059416274497192 1.1856133092267076 12.878708183220295 -71.47053398216725 26.638612694395167 -6.562911686875083 1.6145940181491032 -7.854285665901424 -42.64605578345346 -8.478442727814922 1.5159715840955212 2.363377210023405 -0.5110239179897709 0.05270626803591177 -8.132807320550837 0.03864825429602135 -0.04564529912266527 44.54916450554833 0.011207695682879047 -0.018680176594125086 44.56557319584441 12.428618331337617 0.001769176295726609 -0.022228537949282975 -0.007688634182398854 -0.012607220155296217 -0.012225978775313177 0.04179632606547374 -0.02480282199467216 -0.016837440013849455 11.147668639682747 -0.04081881882548467 0.04516288883937829 0.04414190479903897 -0.04495584117061264 0.0347486480083429 0.010113263693069401 -0.04907437892234341 -0.02342846328163598 4.730712672414567 0.04664376711404904 -0.03160419406476222 -0.01757806473892629 -0.006587405567739191 0.018330533152446093 0.007568837837689235 -0.011140043265932495 0.005208240949707812 -5.583456705844952 -0.004633149989531181 -0.03866205597040839 -6.694170861735629 0.006335965238629288 0.0010600276239560794 -6.7018569795541065 -0.021770589214524797 -0.0069775921642948975 -0.0046398567313704195 0.0036818242856605458 -0.0237508098768284 8.088085200278359 3.496049937428517 -19.21373511311462 -0.01695698597078965 10.416576296659676 -0.0025460680480406603 -5.596120631349546 -15.669968603541463 3.232051460974293 -0.02387299006375247 -0.023757312023796117 0.04009140234333141 0.011579784274653239 4.697163611068108 -0.003763698342971854 12.427051678361114 -8.230172915966948 6.8449173685911395 -0.015024973125875899 46.38374166814502 -0.004419442969064683 -4.354714747950316 -14.77561796555696 -3.835555478328896 -0.013384522927999394 -0.023065126208682715 0.0001175683790913258 0.005722273280751368 -10.753161004018848 -0.026063219875271694 
0.02078541196709599 0.04246974544368181 0.03937981097650031 -0.01929919008668818 0.03784878410162529 0.0351296394500799 -3.3754634198691886 2.2135979366151255 -0.7681448450111127 -1.1246850701529767 3.8560046077502537 0.3987421244162443 -1.3315853991455706 -1.4667836881220324 -1.1446487893183954 0.16308642841995585 0.5839701255913327 -0.8494311707435526 0.06537885469826793 11.536792630992386 -0.8063983932612536 0.14464932372895994 -1.6732124425442148 -3.599235724332316 0.644523210374561 -18.062339954993742 -0.34462352782142414 -4.673288599641065 1.7190481574046885 -14.571037093616868 73.19633387010045 24.31727737939333 1.7476328677538002 -1.7715634268892142 1.4773025490440923 45.31567356872426 19.705276895335945 -0.098865108992282 -3.823025786735654 4.523001724200862 -0.16632082195308834 -1.578768882275386 0.0057463624709849755 0.030532056937371085 -56.262758311552496 0.01187889140514532 -0.008088307263257799 -56.22678179564007 -38.80193625132122 0.009034473663821855 0.022942295912661385 -0.04859171193928902 -0.03013066841121873 0.018270809473719375 0.04656154256948823 0.008194257196202395 -0.006585655057980372 -36.69075523011961 -0.033385938011171394 0.02475292140308848 0.01188200540783623 0.010677243410178214 0.0003526357566305457 0.022999646098322106 -0.0005161306695496736 -0.025061109949184326 -19.77646092362138 0.019202224587025463 -0.03238728551274333 0.03057417086802498 -0.012656955350562705 0.04790245882213747 -0.0025427858145894667 -0.04873659898281058 0.024093069083086484 24.025877535130935 0.00024029315185574793 -0.028037448357190065 28.912436217942634 0.03500068436824327 -0.008932427016641384 28.8480182407281 0.002540330317481499 0.008743856424138179 5.2506562020980985 1.3046325777301717 12.755605628724394 -70.57975271437101 26.686441893167625 -7.613459679115601 0.7285058433547925 -7.658577812714863 -46.7785294728892 -8.518711210253919 1.103146086371828 2.4810802094233133 -0.46620471823828075 0.050084957860002124 -8.139609386409784 -0.035306816785558734 -0.013036030463926875 44.54249459916291 -0.008123736117595677 0.04407719479937087 44.518215715303015 12.502421258709704 -0.026403674938313776 0.014830477449271098 -0.008088692501079256 0.04432820505050754 -0.015111030219464918 0.018976516133366077 -0.03559389866435132 0.01812445644903179 11.154079477044466 -0.001152760035302875 -0.01502955313592208 -0.032830503422066365 -0.03678555618794278 0.0433330244449515 -0.049700919277799065 -0.030024125197268655 -0.031428620245280994 4.809071264357646 0.004304042720910669 0.021871000710358003 -0.04037090021500179 0.032431406567487706 -0.009160665033980674 -0.007399205516043626 0.043012885866864525 0.03202930294499066 -5.6414973429388215 -0.011032234222842809 -0.018109215597569738 -6.697543808628424 -0.013695184676882494 0.015806696503244382 -6.7131763884918065 -0.031972065966513336 -0.005716640922269731 -0.0075454127580829485 -0.006293697726752552 0.004251887639106805 8.083789073079803 3.5310852258606147 -19.22554556595037 -0.009754319707362463 10.401380550696324 -0.03242934978763386 -5.601138621793608 -15.687120570940186 3.223262227645639 -0.0012638869275720082 -0.015803339718797126 0.017776207235084506 -0.006609356072148796 4.683709249920091 0.03367356539630843 12.46994336389665 -8.232199541444356 6.87695880534944 -0.016051050503655483 46.396809150580545 -0.0478808043651678 -4.315754647303549 -14.753629749195598 -3.788133917729177 0.0037226628379589516 -0.027797650098632654 -0.013126896242976163 -0.023908803432357406 -10.700049367966756 0.02469669016679906 
0.036585755776896 -0.01932093161198807 -0.014467891756623944 -0.04205208267003844 0.03222146661989685 0.04170692915645594 -3.217439487048558 2.187593477541629 -0.7940949153576372 -1.158277225120973 3.807306571780513 0.4000106388389117 -1.319239829554833 -1.5200081402779582 -1.1372183115126109 0.18342447054460198 0.611893494540576 -0.8317800186424855 0.009271146905905372 11.712285420615348 -0.8755501255066733 0.24030880375064428 -1.4834628056580226 -3.819981461785218 0.7480310927412477 -17.637981221172147 -0.3662829707291844 -4.614902079336724 1.7228785602757708 -14.417872720931546 72.60600348830299 24.096184925072347 2.9388181569576366 -0.24343441007066374 1.228676262009138 49.55578716710629 19.400410519058514 -0.18405003005066708 -3.773436112367635 4.575148982849568 -0.09756763493301497 -1.593001745677271 -0.002187932970558248 -0.028839280463963408 -56.18967191624299 -0.03844063760116985 0.008626374291963704 -56.25281639238552 -38.72614156377979 0.04893385754122466 -0.018690632532441458 0.04821342261946185 -0.022222516421785236 -0.048126841347254534 0.02561681572679879 -0.04482513014866987 0.04955244343851886 -36.664537664546586 -0.01776468717045531 -0.013633096053266607 0.042074507878720246 0.0008703933734096861 0.006049637190024931 0.043214152515099045 -0.020068306219526977 0.013011171061450435 -19.764265589287856 -0.0315843975611784 -0.010573074657959133 0.02140065551923898 -0.015501832999871639 -0.03997307047787961 0.04636650656507813 0.02468558742285352 -0.011129628913552228 24.068169386654414 0.02756794407985753 0.01032910761279181 28.83292089661787 0.0022985259630595137 0.03925408839813703 28.879871670566054 -0.016754988954374498 0.024684433125511128 5.412606282380818 1.316139910347484 12.662486834387648 -69.43878803395609 27.190138913913778 -8.876819629641401 -1.6769938770670794 -6.948947876152739 -53.77668057076668 -8.794252326301661 -0.04689627455737444 2.7550280532492275 -0.46220340110355707 0.03753608333110002 -8.088132686292068 0.03898166188863191 0.01815034711938927 44.52583729272873 0.02618243772763187 -8.197037467803127e-05 44.52751366023143 12.46909988692216 0.03284503497681277 0.02095245277400528 0.003977452896292982 -0.03965341821001364 0.021760579441365994 -0.004577524539713284 -0.018574131119382793 0.04328468354756062 11.061426429209012 -0.048763186875762886 -0.02829311040527527 0.032181557459570624 0.003261866454472626 -0.02393699998172017 0.0012621887853570754 -0.03474917017535874 -0.00990352014608244 4.739702671835831 0.009148670540887483 0.011049480710648195 0.014897119983611786 0.012902834354460282 0.021630048596587237 -0.030536619719823344 0.03785032439153322 -0.03561437966698214 -5.624913194171494 0.015310681314792685 0.023250114456491926 -6.73308389197047 -0.022160656925886726 0.04969462898578633 -6.716021140024485 -0.04030456646285653 -0.002570880870128168 0.006360323990979058 -0.04755460839360971 0.0340558597744464 8.0759409294831 3.5306138836196723 -19.227966253555866 0.013407144863854302 10.419073949838891 -0.007414147309428156 -5.63695964359664 -15.63158085070986 3.198742042498816 -0.03500652838726387 0.007731420700200596 -0.01171852200260527 -0.006593518395910401 4.663391294100216 -0.01722976962746529 12.445978479329236 -8.270315864150911 6.915024095641446 -0.044453392917356734 46.39587335208475 -0.027941688985668883 -4.370235203444727 -14.724306404739552 -3.844545791910325 -0.0041479971521825665 0.02661407748229874 -0.038194713919884125 -0.01860708839989803 -10.791455538456548 -0.017586370044096755 
